<svg width="800" height="600" xmlns="http://www.w3.org/2000/svg">
  <rect width="800" height="600" fill="#2c3e50"/>
  <!-- Main hospital building -->
  <rect x="200" y="150" width="400" height="300" fill="#34495e"/>
  <!-- Windows -->
  <rect x="230" y="180" width="40" height="40" fill="#ecf0f1"/>
  <rect x="300" y="180" width="40" height="40" fill="#ecf0f1"/>
  <rect x="370" y="180" width="40" height="40" fill="#ecf0f1"/>
  <rect x="440" y="180" width="40" height="40" fill="#ecf0f1"/>
  <rect x="510" y="180" width="40" height="40" fill="#ecf0f1"/>
  <rect x="230" y="250" width="40" height="40" fill="#ecf0f1"/>
  <rect x="300" y="250" width="40" height="40" fill="#ecf0f1"/>
  <rect x="370" y="250" width="40" height="40" fill="#ecf0f1"/>
  <rect x="440" y="250" width="40" height="40" fill="#ecf0f1"/>
  <rect x="510" y="250" width="40" height="40" fill="#ecf0f1"/>
  <rect x="230" y="320" width="40" height="40" fill="#ecf0f1"/>
  <rect x="300" y="320" width="40" height="40" fill="#ecf0f1"/>
  <rect x="370" y="320" width="40" height="40" fill="#ecf0f1"/>
  <rect x="440" y="320" width="40" height="40" fill="#ecf0f1"/>
  <rect x="510" y="320" width="40" height="40" fill="#ecf0f1"/>
  <!-- New wing (expansion) -->
  <rect x="600" y="200" width="150" height="200" fill="#2980b9"/>
  <!-- Connecting corridor -->
  <rect x="550" y="250" width="50" height="50" fill="#7f8c8d"/>
  <!-- Windows in new wing -->
  <rect x="620" y="220" width="30" height="30" fill="#ecf0f1"/>
  <rect x="670" y="220" width="30" height="30" fill="#ecf0f1"/>
  <rect x="720" y="220" width="30" height="30" fill="#ecf0f1"/>
  <rect x="620" y="270" width="30" height="30" fill="#ecf0f1"/>
  <rect x="670" y="270" width="30" height="30" fill="#ecf0f1"/>
  <rect x="720" y="270" width="30" height="30" fill="#ecf0f1"/>
  <rect x="620" y="320" width="30" height="30" fill="#ecf0f1"/>
  <rect x="670" y="320" width="30" height="30" fill="#ecf0f1"/>
  <rect x="720" y="320" width="30" height="30" fill="#ecf0f1"/>
  <!-- Entrance -->
  <rect x="350" y="450" width="100" height="20" fill="#7f8c8d"/>
  <rect x="380" y="430" width="40" height="20" fill="#3498db"/>
  <!-- Hospital cross symbol -->
  <rect x="390" y="100" width="20" height="70" fill="#e74c3c"/>
  <rect x="365" y="125" width="70" height="20" fill="#e74c3c"/>
  <!-- Ground -->
  <rect x="0" y="470" width="800" height="130" fill="#7f8c8d"/>
  <!-- Title -->
  <text x="400" y="80" font-family="Arial" font-size="24" text-anchor="middle" fill="white">Hospital Expansion</text>
</svg>