<svg width="800" height="600" xmlns="http://www.w3.org/2000/svg">
  <rect width="800" height="600" fill="#2c3e50"/>
  <rect x="100" y="200" width="200" height="350" fill="#34495e"/>
  <rect x="500" y="200" width="200" height="350" fill="#34495e"/>
  <rect x="300" y="300" width="200" height="250" fill="#34495e"/>
  <!-- Windows for building 1 -->
  <rect x="120" y="230" width="30" height="30" fill="#ecf0f1"/>
  <rect x="170" y="230" width="30" height="30" fill="#ecf0f1"/>
  <rect x="220" y="230" width="30" height="30" fill="#ecf0f1"/>
  <rect x="120" y="280" width="30" height="30" fill="#ecf0f1"/>
  <rect x="170" y="280" width="30" height="30" fill="#ecf0f1"/>
  <rect x="220" y="280" width="30" height="30" fill="#ecf0f1"/>
  <rect x="120" y="330" width="30" height="30" fill="#ecf0f1"/>
  <rect x="170" y="330" width="30" height="30" fill="#ecf0f1"/>
  <rect x="220" y="330" width="30" height="30" fill="#ecf0f1"/>
  <!-- Windows for building 2 -->
  <rect x="520" y="230" width="30" height="30" fill="#ecf0f1"/>
  <rect x="570" y="230" width="30" height="30" fill="#ecf0f1"/>
  <rect x="620" y="230" width="30" height="30" fill="#ecf0f1"/>
  <rect x="520" y="280" width="30" height="30" fill="#ecf0f1"/>
  <rect x="570" y="280" width="30" height="30" fill="#ecf0f1"/>
  <rect x="620" y="280" width="30" height="30" fill="#ecf0f1"/>
  <rect x="520" y="330" width="30" height="30" fill="#ecf0f1"/>
  <rect x="570" y="330" width="30" height="30" fill="#ecf0f1"/>
  <rect x="620" y="330" width="30" height="30" fill="#ecf0f1"/>
  <!-- Windows for central building -->
  <rect x="335" y="330" width="30" height="30" fill="#ecf0f1"/>
  <rect x="385" y="330" width="30" height="30" fill="#ecf0f1"/>
  <rect x="435" y="330" width="30" height="30" fill="#ecf0f1"/>
  <rect x="335" y="380" width="30" height="30" fill="#ecf0f1"/>
  <rect x="385" y="380" width="30" height="30" fill="#ecf0f1"/>
  <rect x="435" y="380" width="30" height="30" fill="#ecf0f1"/>
  <!-- Ground -->
  <rect x="0" y="550" width="800" height="50" fill="#27ae60"/>
  <!-- Pools -->
  <ellipse cx="400" cy="500" rx="50" ry="20" fill="#3498db"/>
  <!-- Title -->
  <text x="400" y="80" font-family="Arial" font-size="24" text-anchor="middle" fill="white">Residential Complex</text>
</svg>